<svg width="302" height="162" viewBox="0 0 302 162" fill="none" xmlns="http://www.w3.org/2000/svg">
<path fill-rule="evenodd" clip-rule="evenodd" d="M300.908 -26.9637C300.557 -28.9768 297.681 -28.584 297.11 -26.9637C294.913 -20.7044 294.086 -14.1408 291.415 -7.97969C288.824 -2.00128 285.224 3.62951 280.807 8.48845C272.41 17.7232 261.256 23.8351 249.547 28.2149C226.296 36.9115 200.044 39.9262 179.313 54.2241C156.97 69.6356 146.339 95.582 127.095 113.949C109.211 131.018 86.3796 142.294 62.3832 148.732C50.1521 152.014 37.5864 154.103 24.9561 155.201C12.215 156.311 -0.518047 156.103 -13.2894 155.857C-16.4001 155.796 -19.5168 155.908 -22.6316 155.891C-24.4137 155.881 -24.8733 158.597 -23.061 158.98C-10.1928 161.698 2.72368 162.177 15.8559 161.696C28.8772 161.219 41.8603 159.699 54.5893 156.955C79.5434 151.578 103.582 141.43 123.397 125.531C133.804 117.184 142.344 107.256 150.142 96.5935C158.308 85.4281 165.973 73.6991 176.495 64.4369C196.096 47.1812 223.234 43.4712 247.287 35.1399C259.324 30.9704 271.027 25.4967 280.508 17.0004C290.56 7.99155 297.683 -4.22649 300.59 -17.2203C300.951 -18.8308 301.392 -20.5513 301.485 -22.1991C301.574 -23.7545 301.174 -25.4259 300.908 -26.9637Z" fill="#50614A"/>
<path fill-rule="evenodd" clip-rule="evenodd" d="M10.6002 137.382C22.1881 136.535 33.7136 134.697 44.9871 131.953C66.8849 126.623 87.9702 117.225 105.096 102.721C114.12 95.0773 121.438 86.0095 127.919 76.2602C134.945 65.6919 141.475 54.6523 151.416 46.3642C170.233 30.6738 195.606 26.0682 217.599 16.2129C229.066 11.075 240.098 4.14016 248.633 -5.00815C256.508 -13.4475 263.963 -25.4495 261.151 -37.2649C260.794 -38.7615 258.512 -38.6908 258.113 -37.2649C256.717 -32.2626 255.544 -27.0757 253.373 -22.3169C251.264 -17.6956 248.301 -13.4553 244.851 -9.69229C237.374 -1.53384 227.881 4.67437 217.871 9.50777C196.737 19.7088 172.789 23.9491 153.234 37.3219C142.88 44.4022 135.197 53.7528 128.262 63.9479C121.557 73.8052 115.182 83.7234 106.548 92.1274C91.1636 107.103 71.6144 116.842 51.031 123.166C39.0257 126.855 26.7161 129.147 14.2794 130.928C1.62291 132.741 -11.223 133.874 -24.0025 134.34C-25.8411 134.406 -25.8128 136.971 -24.0025 137.101C-12.4709 137.93 -0.937412 138.224 10.6002 137.382Z" fill="#50614A"/>
<path fill-rule="evenodd" clip-rule="evenodd" d="M96.0745 59.6408C91.8973 67.2553 87.3593 74.8206 81.2004 81.0956C74.2674 88.162 65.528 92.6949 55.9944 95.5349C44.5132 98.9542 32.4636 100.415 20.6277 102.169C7.58415 104.1 -5.20132 104.457 -18.1823 101.993C-19.3274 101.775 -20.2306 103.393 -19.0311 103.957C-8.60836 108.855 3.62674 109.031 14.9345 108.128C26.2059 107.227 37.5943 105.528 48.6501 103.196C59.0708 100.997 69.5278 97.6089 78.1683 91.3476C85.5409 86.0056 91.2804 79.0059 96.0946 71.4386C105.872 56.0683 112.1 38.0211 125.752 25.2747C141.08 10.9631 162.443 5.66618 180.99 -3.37215C190.778 -8.14075 200.189 -14.3509 207.475 -22.3758C214.315 -29.9117 220.266 -39.9222 218.748 -50.3059C218.466 -52.2365 215.391 -52.0263 214.95 -50.3059C213.851 -46.0204 212.847 -41.6211 210.966 -37.5772C209.114 -33.5942 206.581 -29.9195 203.626 -26.6357C197.332 -19.6439 189.433 -14.1977 181.057 -9.818C163.391 -0.577381 143.43 4.2953 127.335 16.3444C112.43 27.5 104.715 43.8994 96.0745 59.6408Z" fill="#50614A"/>
<path fill-rule="evenodd" clip-rule="evenodd" d="M-19.664 72.8605C-1.94332 74.6949 15.9084 76.0441 33.5 72.4422C47.5515 69.5669 61.2825 63.5177 71.6951 53.7292C76.9569 48.7838 81.1663 42.9429 84.2084 36.4695C87.5469 29.3658 90.0609 21.8201 95.4255 15.8377C105.026 5.12803 119.079 -0.0863953 131.568 -6.77971C138.401 -10.4406 145.059 -14.7143 150.569 -20.1349C155.966 -25.4475 160.587 -32.0053 160.895 -39.659C160.984 -41.8489 157.99 -41.8921 157.26 -40.1382C154.734 -34.0636 151.595 -28.4701 146.783 -23.8233C141.898 -19.1038 136.09 -15.3977 130.091 -12.1689C118.063 -5.69165 104.947 -0.848431 94.6614 8.31363C89.1234 13.2452 85.3213 19.2335 82.3235 25.8855C79.3116 32.5612 76.5113 39.2466 71.6528 44.8951C62.9376 55.0234 50.5674 61.8032 37.6529 65.4621C19.2025 70.6883 -0.636953 70.4271 -19.664 69.8693C-21.6779 69.8104 -21.5872 72.6621 -19.664 72.8605Z" fill="#50614A"/>
<path fill-rule="evenodd" clip-rule="evenodd" d="M-12.459 44.6477C-3.73372 49.1786 6.76157 50.6811 16.3839 48.2359C25.4378 45.9341 32.9373 40.5134 39.0095 33.716C45.118 26.8735 49.9261 19.0705 55.4036 11.7644C61.25 3.96537 68.1125 -2.74758 77.0313 -7.15872C82.2809 -9.75513 87.7685 -11.1437 93.4798 -12.3908C98.6468 -13.5182 104.425 -14.8655 107.247 -19.6596C107.818 -20.6259 106.864 -22.0203 105.691 -21.6314C101.284 -20.1663 96.9614 -18.6521 92.3952 -17.6956C87.5548 -16.6802 82.8172 -15.6628 78.2247 -13.8088C69.306 -10.2069 61.6552 -4.42287 55.4883 2.78304C44.5454 15.5687 37.2697 32.8715 21.5005 40.9632C11.6161 46.0343 -0.794395 46.5685 -11.0679 42.3282C-12.6505 41.6761 -14.0677 43.811 -12.459 44.6477Z" fill="#50614A"/>
</svg>
