<svg width="449" height="214" viewBox="0 0 449 214" fill="none" xmlns="http://www.w3.org/2000/svg">
<path fill-rule="evenodd" clip-rule="evenodd" d="M14.1886 87.4704C14.9896 86.6463 15.3998 86.1011 15.9274 85.7036C17.6214 84.4279 19.3133 83.1398 21.0863 81.9744C32.7927 74.2745 45.5436 68.5392 58.5509 63.3303C64.2054 61.064 70.0372 59.2202 75.7066 56.9894C84.9264 53.36 94.5457 51.3372 104.37 50.4486C113.207 49.6495 122.105 49.458 130.976 49.0169C131.241 49.0044 131.519 49.1854 132.132 49.3915C131.224 49.7619 130.673 50.0262 130.094 50.2176C122.555 52.7024 115.356 55.9676 108.185 59.3014C102.302 62.0359 96.3123 64.529 89.9956 66.2001C73.5555 70.5474 58.0638 77.0069 43.7577 86.0553C41.9932 87.1728 40.2565 87.5724 38.178 87.5224C31.5131 87.3643 24.8439 87.3768 18.1747 87.3414C17.019 87.3352 15.8612 87.4142 14.1886 87.4704ZM47.5003 87.6098C47.9489 87.1749 48.1198 86.9127 48.3634 86.7878C53.0074 84.4383 57.5746 81.9224 62.3298 79.8059C71.3765 75.7749 80.8078 72.7762 90.4271 70.2893C94.4859 69.2405 98.5169 67.944 102.379 66.3437C109.461 63.4094 116.393 60.1317 123.414 57.058C130.966 53.7554 138.733 51.0188 146.78 49.1168C148.918 48.6111 151.17 48.3093 153.366 48.3301C177.526 48.5507 201.584 50.0803 225.445 53.9614C226.208 54.0842 226.962 54.2569 227.72 54.4047C227.737 54.6086 227.754 54.8126 227.774 55.0165C226.652 55.3287 225.531 55.645 224.407 55.9509C222.343 56.5086 220.271 57.0497 218.21 57.6199C210.543 59.7426 203.427 63.2512 196.015 66.0107C190.461 68.0772 184.8 69.9022 179.109 71.5837C173.26 73.311 167.289 74.6449 161.417 76.3035C148.267 80.0203 135.556 84.8025 123.468 91.1435C115.425 95.3597 107.48 99.6986 100.194 105.099C98.5062 106.35 96.7737 107.54 95.0156 108.793C94.2616 108.266 93.61 107.836 92.9863 107.369C90.5873 105.584 88.1926 103.794 85.8065 101.994C75.1021 93.9258 63.0668 89.1373 49.5425 88.0073C48.9594 87.9574 48.389 87.7867 47.5003 87.6098ZM97.3847 110.456C97.9081 110 98.1131 109.763 98.3716 109.606C102.693 107.009 106.895 104.192 111.375 101.884C119.65 97.6218 128.035 93.5471 136.473 89.5972C147.408 84.4779 159.005 81.1212 170.705 78.1723C182.04 75.3171 193.197 71.9874 203.917 67.405C213.044 63.503 222.399 60.3294 232.14 58.263C237.28 57.1725 242.421 56.2735 247.659 57.8571C249.319 58.3587 251.084 58.5314 252.799 58.8644C269.173 62.0484 285.442 65.6465 301.278 70.8949C302.07 71.1592 302.844 71.4797 304.083 71.9458C303.121 72.3183 302.658 72.5618 302.16 72.6784C296.373 74.0477 290.56 75.313 284.797 76.7676C273.524 79.6103 262.668 83.5934 252.359 88.8502C244.769 92.7188 237.414 97.0245 229.925 101.08C221.532 105.623 213.145 110.179 204.677 114.586C197.653 118.243 190.807 122.122 185.001 127.512C182.758 129.593 180.589 131.749 178.348 133.832C175.136 136.822 171.528 139.324 167.909 141.917C167.398 141.551 166.999 141.311 166.653 141.012C160.293 135.468 152.977 131.474 145.105 128.378C136.315 124.921 127.163 122.569 118.093 119.966C115.196 119.136 112.295 118.309 109.446 117.342C105.054 115.854 101.228 113.396 97.3847 110.456ZM170.306 144.437C171.367 143.648 172.156 143.022 172.989 142.456C177.097 139.669 181.091 136.747 184.599 133.243C190.486 127.362 197.514 123.067 204.878 119.179C216.317 113.142 227.761 107.103 239.04 100.787C251.889 93.5908 265.131 87.3123 279.318 83.0378C283.72 81.7101 288.115 80.3345 292.579 79.2336C298.503 77.7728 304.482 76.52 310.457 75.2755C311.576 75.0424 312.995 74.903 313.924 75.3754C315.421 76.135 317.036 76.3951 318.549 76.9924C327.309 80.4594 336.051 83.9743 344.792 87.4891C345.273 87.6827 345.691 88.0219 346.296 88.3902C345.529 88.8876 344.965 89.2997 344.358 89.6409C337.975 93.2495 331.513 96.729 325.214 100.471C309.805 109.621 294.972 119.55 281.759 131.616C270.465 141.927 259.114 152.181 247.916 162.59C240.838 169.166 234.289 176.229 228.782 184.15C228.305 184.836 227.756 185.475 227.263 186.106C226.752 185.97 226.438 185.918 226.148 185.804C217.906 182.518 209.772 179.005 201.97 174.799C197.773 172.537 193.823 169.907 190.582 166.456C183.834 159.266 177.218 151.958 170.306 144.437ZM230.081 187.269C230.397 186.713 230.58 186.291 230.85 185.929C235.744 179.336 241.026 173.053 246.959 167.322C260.1 154.628 273.845 142.562 288.14 131.133C307.289 115.825 328.756 103.89 350.019 91.6866C351.844 90.6399 353.454 90.7647 355.161 92.3775C354.497 93.1309 353.871 93.726 353.384 94.4169C351.991 96.3856 350.318 98.2502 349.363 100.412C346.631 106.591 343.775 112.768 341.737 119.177C336.612 135.293 331.943 151.544 327.021 167.722C325.282 173.434 323.543 179.159 321.445 184.751C318.363 192.965 313.514 200.205 308.024 207.11C303.692 212.556 298.394 216.647 292.184 219.814C290.592 220.624 289.405 220.58 288.031 219.671C284.024 217.02 279.92 214.502 275.996 211.738C262.48 202.217 248.351 193.801 232.559 188.297C231.753 188.016 230.982 187.646 230.081 187.269ZM294.147 222.439C295.39 221.754 296.204 221.292 297.031 220.849C301.229 218.601 305.151 215.96 308.434 212.556C316.374 204.327 322.571 194.954 326.278 184.262C331.082 170.402 335.427 156.39 339.915 142.429C344.072 129.505 347.528 116.351 353.36 103.981C354.531 101.499 355.819 99.1201 357.718 97.0973C358.064 96.729 358.532 96.4689 359.045 96.0839C359.32 96.5771 359.54 96.8913 359.681 97.2347C361.745 102.267 363.857 107.28 365.842 112.341C371.279 126.205 375.062 140.498 377.399 155.161C379.242 166.731 381.979 178.106 385.589 189.271C389.799 202.3 395.473 214.745 401.642 226.992C404.381 232.43 407.305 237.741 411.447 242.302C415.76 247.055 420.17 251.727 424.538 256.433C425.111 257.049 425.696 257.654 426.587 258.589C425.538 258.934 424.963 259.173 424.363 259.311C415.297 261.406 406.252 261.196 397.235 259.023C390.538 257.409 384.38 254.551 378.435 251.211C372.374 247.809 366.314 244.404 360.258 240.991C353.038 236.921 345.347 234.068 337.159 232.509C329.439 231.04 321.708 229.627 313.994 228.137C308.141 227.007 302.354 225.625 296.762 223.56C295.995 223.277 295.258 222.917 294.147 222.439ZM413.165 237.732C411.838 236.221 410.768 234.442 409.854 232.652C405.105 223.375 400.314 214.119 396.336 204.483C390.893 191.294 386.71 177.757 384.254 163.732C383.117 157.252 382.066 150.757 380.932 144.277C378.853 132.4 375.203 120.952 370.839 109.708C369.546 106.381 368.055 103.124 366.673 99.8297C366.391 99.1576 366.19 98.4521 365.9 97.6155C371.501 98.8371 416.831 126.003 419.702 129.705C418.963 130.91 418.006 132.019 417.548 133.297C415.835 138.098 414.921 143.078 415.643 148.143C416.489 154.066 418.26 159.793 420.618 165.314C424.807 175.116 430.242 184.32 435.168 193.766C437.541 198.319 440.169 202.737 441.717 207.667C443.23 212.479 444.979 217.219 446.526 222.02C447.214 224.156 447.966 226.339 448.162 228.544C449.35 241.819 443.636 251.016 430.436 256.982C424.641 250.543 418.841 244.188 413.165 237.732ZM382.899 97.859C382.293 97.5156 381.718 97.1223 381.126 96.754C381.156 96.5916 381.186 96.4293 381.216 96.267C381.979 96.2878 382.743 96.2795 383.506 96.3357C386.275 96.5355 389.041 96.8871 391.814 96.9496C411.133 97.3887 430.276 99.7507 449.416 102.038C470.114 104.512 490.324 109.355 510.434 114.595C513.419 115.373 516.33 116.445 519.231 117.498C524.813 119.527 530.363 121.639 535.928 123.714C536.874 124.066 537.825 124.401 538.925 124.8C538.222 127.177 537.002 129.1 535.152 130.442C532.877 132.09 530.465 133.632 527.928 134.852C523.147 137.153 517.982 137.237 512.776 136.793C502.443 135.915 492.398 133.753 482.491 130.779C474.299 128.319 466.031 126.072 457.726 124.007C453.667 122.998 449.465 122.353 445.289 122.014C439.18 121.518 433.051 121.512 427.443 124.63C427.065 124.84 426.382 124.694 425.91 124.528C425.403 124.347 424.98 123.947 424.523 123.639C410.973 114.547 397.144 105.884 382.899 97.859ZM537.186 119.558C527.767 115.423 518.469 110.999 508.46 108.283C494.827 104.583 481.098 101.224 467.149 98.9162C444.966 95.2431 422.577 93.289 400.121 92.0508C390.37 91.5118 380.614 91.0748 370.858 90.6024C369.183 90.5212 367.613 90.2382 366.397 88.9167C366.641 88.6525 366.775 88.4527 366.959 88.3174C367.273 88.0843 367.615 87.8866 367.953 87.6848C375.295 83.2792 383.201 80.0536 391.252 77.1443C400.397 73.8396 408.927 69.4382 416.717 63.7195C419.315 61.8132 421.891 59.8508 424.271 57.699C429.456 53.0062 433.452 47.5019 435.518 40.803C435.847 40.8259 436.101 40.7884 436.304 40.8696C437.481 41.3357 438.658 41.8102 439.816 42.3221C449.756 46.7256 459.166 52.0469 468.266 57.905C475.525 62.579 483.215 66.4186 491.36 69.4153C494.631 70.6181 497.878 71.9 501.063 73.3027C510.8 77.5917 519.52 83.3167 526.723 91.079C532.862 97.6967 537.006 105.369 539.145 114.045C539.642 116.062 540.014 118.12 539.606 120.586C538.613 120.166 537.895 119.87 537.186 119.558ZM430.47 42.3117C430.255 42.8112 430.009 43.3002 429.733 43.7706C427.249 48.0409 424.299 51.9657 420.488 55.2101C413.449 61.2035 405.648 66.1022 397.173 69.9043C391.19 72.5889 385.023 74.878 378.962 77.4044C373.485 79.6894 368.1 82.1534 363.242 85.585C361.164 87.0542 361.121 87.0188 358.671 85.2416C360.258 80.9151 361.679 76.4034 363.55 72.079C366.56 65.1179 369.115 58.1027 369.45 50.4465C369.802 42.3971 370.24 34.3642 368.051 26.0505C368.899 26.1399 369.45 26.1316 369.963 26.2627C381.9 29.2886 394.05 31.2094 406.235 32.9741C413.784 34.0687 421.257 35.5567 428.509 37.954C431.453 38.9259 431.707 39.467 430.47 42.3117ZM366.073 27.8339C366.649 35.4984 366.387 43.1421 365.522 50.7733C365.101 54.49 364.15 58.0528 362.819 61.5676C360.155 68.5995 356.372 75.2256 354.702 82.6237C354.629 82.9421 354.277 83.2022 354.086 83.4478C352.743 83.1814 352.384 82.1887 351.978 81.2751C349.605 75.9498 347.34 70.5786 344.869 65.2969C342.036 59.2473 339.336 53.102 335.418 47.6184C331.881 42.6697 328.23 37.7813 324.378 33.0636C318.087 25.3616 311.335 18.0696 303.155 12.174C302.728 11.866 302.38 11.4582 301.995 11.0981C302.077 10.9213 302.156 10.7464 302.237 10.5716C303.32 10.6694 304.405 10.7464 305.486 10.8651C314.667 11.8577 323.689 13.7015 332.586 16.0677C342.857 18.798 353.072 21.7281 363.315 24.5646C365.857 25.268 365.88 25.2513 366.073 27.8339ZM298.343 12.0596C302.295 16.0698 306.704 19.6492 310.754 23.574C316.955 29.5861 322.74 35.9666 327.504 43.1504C329.828 46.6549 332.242 50.1406 334.143 53.8657C337.396 60.2337 340.276 66.7848 343.32 73.2569C344.337 75.4212 345.377 77.5771 346.422 79.7685C346.14 79.8621 345.969 79.9828 345.849 79.9474C345.172 79.7393 344.501 79.5083 343.839 79.2586C331.678 74.6907 319.51 70.1436 307.374 65.5196C305.93 64.9681 304.424 64.2251 303.341 63.1846C300.126 60.0901 297.123 56.7854 294.008 53.591C290.291 49.7785 286.794 45.7142 282.753 42.2556C274.936 35.5671 266.979 29.0076 258.755 22.8019C250.637 16.6795 241.857 11.4956 232.336 7.61656C231.614 7.32313 230.909 6.99432 230.196 6.68217C230.239 6.5136 230.284 6.34296 230.326 6.17439C232.116 6.43452 233.919 6.63222 235.695 6.96519C247.832 9.23977 260.1 9.98687 272.431 10.0285C279.256 10.0535 286.083 10.0847 292.908 10.0555C295.019 10.0451 296.693 10.3885 298.343 12.0596ZM224.396 8.56551C236.03 12.7609 246.563 18.9437 256.7 25.7986C258.909 27.2928 260.861 29.1429 262.914 30.8473C264.183 31.9003 265.381 33.0386 266.678 34.0542C276.622 41.8373 285.431 50.7275 293.645 60.2025C293.835 60.4189 293.97 60.6811 294.128 60.9225C294.04 61.0557 293.951 61.1889 293.863 61.3221C291.039 60.5812 288.221 59.8133 285.389 59.1037C268.837 54.9582 252.071 51.8034 235.197 49.2874C229.617 48.455 224.973 46.5196 220.709 43.038C210.022 34.3184 198.078 27.6237 185.075 22.7353C179.075 20.4816 173.064 18.2507 167.035 16.0718C165.576 15.5453 164.021 15.2706 161.99 14.7441C162.846 14.4632 163.177 14.2905 163.523 14.2509C172.544 13.225 181.318 11.1793 189.959 8.4573C197.326 6.13693 204.935 5.04438 212.694 5.10473C213.525 5.11098 214.38 5.33781 215.176 5.60002C216.291 5.96421 217.336 6.53233 218.453 6.87987C220.421 7.48753 222.467 7.86836 224.396 8.56551ZM167.992 19.5618C176.759 22.392 184.996 26.4833 193.127 30.737C201.001 34.8554 208.018 40.2224 215.287 45.221C215.58 45.4208 215.811 45.708 216.097 45.9806C215.832 46.145 215.706 46.2928 215.584 46.2867C214.952 46.2616 214.32 46.2116 213.69 46.1471C186.543 43.4064 159.356 42.2597 132.143 44.8548C125.785 45.4604 119.934 44.759 114.028 42.5386C106.861 39.8478 99.3713 38.4972 91.6298 38.8364C91.4162 38.8447 91.1961 38.7303 90.9804 38.6741C90.9377 38.5034 90.8949 38.3307 90.8522 38.1601C93.6869 36.8344 96.5195 35.5005 99.3585 34.1811C104.945 31.5798 110.593 29.0971 116.108 26.3605C124.997 21.955 134.052 18.0509 144.016 16.6046C146.675 16.2175 149.459 15.4725 152.02 15.8783C157.412 16.7336 162.814 17.8886 167.992 19.5618ZM90.7454 41.9143C96.6968 42.832 102.588 44.116 108.499 45.2793C109.168 45.4104 109.8 45.708 110.45 45.9286C110.433 46.1346 110.418 46.3406 110.4 46.5467C87.6073 48.0471 66.6363 55.6887 45.9601 64.477C46.2913 63.8818 46.6929 63.4364 47.1735 63.0993C57.7989 55.6492 68.4393 48.2219 80.5921 43.2045C81.4658 42.8445 82.2861 42.139 83.1705 42.0662C85.689 41.8602 88.2866 41.5334 90.7454 41.9143ZM0.700667 92.877C1.18772 94.0652 2.21736 94.4398 3.39013 94.4024C4.4155 94.3691 5.44942 94.2193 6.45557 94.0132C12.8705 92.6918 19.3432 92.4129 25.88 92.723C32.5406 93.0393 39.2119 93.135 45.8747 93.4201C59.2921 93.9924 71.3616 98.2253 82.0276 106.219C86.5008 109.571 91.0381 112.838 95.507 116.195C100.743 120.126 106.572 122.832 112.93 124.567C119.05 126.238 125.168 127.938 131.207 129.868C136.413 131.528 141.574 133.364 146.628 135.418C154.656 138.681 161.643 143.476 167.475 149.804C172.305 155.044 177.184 160.242 181.92 165.562C188.004 172.396 195.233 177.677 203.57 181.636C212.369 185.81 221.232 189.852 230.45 193.042C245.666 198.307 259.325 206.261 272.356 215.371C274.81 217.086 277.254 218.816 279.706 220.532C285.839 224.824 292.545 228.047 299.823 229.912C306.573 231.643 313.439 232.967 320.281 234.348C325.88 235.481 331.524 236.4 337.136 237.474C344.54 238.891 351.461 241.574 357.962 245.276C364.069 248.753 370.125 252.316 376.213 255.827C380.874 258.514 385.698 260.871 390.827 262.615C401.333 266.191 412.112 267.123 423 265.081C432.282 263.342 440.51 259.167 446.654 252.085C453.308 244.412 455.479 235.204 453.073 225.498C451.063 217.388 448.194 209.463 445.34 201.582C443.977 197.816 441.771 194.338 439.944 190.73C435.238 181.434 429.874 172.425 426.162 162.69C424.29 157.779 422.919 152.638 421.861 147.496C421.058 143.592 421.987 139.632 423.417 135.882C423.767 134.96 424.374 134.132 425.04 132.947C426.172 133.705 427.027 134.25 427.853 134.835C440.293 143.607 452.202 153.03 463.524 163.121C468.373 167.441 472.639 172.392 477.08 177.136C485.966 186.628 495 196.001 503.599 205.738C521.587 226.108 538.692 247.17 553.914 269.608C562.679 282.527 570.446 296.037 577.763 309.784C583.657 320.855 589.091 332.147 593.791 343.739C597.642 353.239 600.994 362.934 604.461 372.58C605.497 375.462 606.584 378.251 608.866 380.442C609.086 380.656 609.255 380.927 609.425 381.185C611.237 383.919 613.909 384.529 616.746 382.844C619.617 381.137 621.174 378.552 621.303 375.368C621.403 372.921 621.196 370.407 620.711 367.999C619.254 360.768 617.075 353.719 614.343 346.85C611.929 340.788 609.327 334.796 606.841 328.761C601.793 316.512 595.299 304.998 588.435 293.644C570.876 264.594 549.888 237.976 527.618 212.298C515.508 198.334 502.054 185.579 488.139 173.309C487.786 172.997 487.428 172.689 487.062 172.394C474.172 161.951 461.321 151.46 448.369 141.091C443.398 137.112 438.193 133.41 433.1 129.576C432.491 129.118 431.914 128.623 430.904 127.809C432.164 127.514 432.955 127.27 433.762 127.146C440.216 126.149 446.635 126.594 452.909 128.153C461.682 130.334 470.415 132.692 479.09 135.22C487.092 137.553 495.075 139.894 503.366 141.047C509.106 141.844 514.85 142.62 520.68 142.127C527.496 141.551 533.398 138.881 538.482 134.533C542.802 130.844 544.643 125.995 544.75 120.476C544.863 114.618 543.137 109.172 540.732 103.888C533.979 89.0562 522.312 78.8882 507.929 71.4193C503.592 69.1676 499.016 67.3072 494.428 65.5757C485.565 62.2357 477.195 58.0257 469.229 52.9813C464.436 49.9471 459.514 47.0836 454.532 44.347C439.209 35.9271 422.876 30.3249 405.406 28.0233C386.375 25.5135 367.782 21.1933 349.451 15.6473C341.716 13.3061 333.827 11.4394 325.978 9.47285C310.938 5.70199 295.598 4.72598 280.132 4.93201C265.257 5.13179 250.449 4.47418 235.754 1.93322C230.764 1.07167 225.669 0.692918 220.604 0.345383C212.09 -0.237309 203.607 0.222602 195.271 2.08098C191.405 2.94253 187.605 4.12248 183.824 5.31076C175.838 7.8205 167.591 8.94634 159.315 9.97854C153.648 10.6861 147.961 11.2875 142.326 12.1928C135.319 13.3207 128.558 15.3934 122.167 18.4151C112.383 23.0413 102.638 27.7465 92.9628 32.5808C84.2791 36.9198 75.6233 41.3253 67.1277 45.9973C61.6761 48.9961 56.4125 52.3569 51.2921 55.8698C43.2365 61.3928 34.9438 66.5351 26.4781 71.4276C20.657 74.7927 15.246 78.6842 10.1832 83.0669C7.63688 85.2728 4.90255 87.2748 2.25581 89.3704C2.00802 89.566 1.76235 89.7596 1.52524 89.9656C0.615219 90.7626 0.22216 91.7053 0.700667 92.877Z" fill="#4C544F"/>
</svg>
