<svg width="355" height="357" viewBox="0 0 355 357" fill="none" xmlns="http://www.w3.org/2000/svg">
<mask style="mask-type:alpha" maskUnits="userSpaceOnUse" x="-1" y="-188" width="488" height="545">
<path d="M216.184 -188L-0.000167372 210.102L270.208 356.835L486.392 -41.2667L216.184 -188Z" fill="white"/>
</mask>
<g>
<path fill-rule="evenodd" clip-rule="evenodd" d="M371.032 -62.5161C374.872 -53.1556 377.938 -43.4812 381.188 -33.8855C378.681 -45.3502 376.835 -57.5778 377.737 -68.8943C378.696 -80.942 376.999 -92.3911 379.064 -104.511C380.33 -111.942 384.317 -118.102 387.579 -124.635C380.95 -122.9 374.373 -120.894 367.933 -118.841C361.111 -116.666 354.543 -113.821 347.836 -111.352C357.826 -96.3931 364.155 -79.2853 371.032 -62.5161ZM9.42996 198.746C16.805 189.021 23.1572 178.596 30.6403 168.932C45.7944 149.37 60.6386 129.422 76.392 110.338C83.6073 101.599 91.127 93.0301 98.1016 84.0928C106.152 73.7801 112.325 62.3637 120.869 52.4031C137.384 33.1496 155.533 15.4898 174.345 -1.44392C188.838 -14.4895 203.817 -27.4746 219.184 -39.4563C235.956 -52.5317 254.393 -62.7346 271.5 -75.3121C279.435 -81.1486 286.394 -88.1398 294.059 -94.3068C307.423 -105.059 322.834 -114.181 338.007 -121.938C360.92 -133.652 385.597 -140.397 410.261 -146.721L438.644 -131.612C432.717 -132.047 426.689 -130.687 420.791 -130.012C415.464 -129.404 410.111 -129.111 404.803 -128.306C402.41 -127.941 400.017 -127.457 397.624 -126.967C399.875 -119.698 400.39 -111.942 401.861 -103.807C404.618 -88.546 409.458 -73.8547 413.48 -58.9543C415.159 -52.7411 416.066 -46.3383 416.564 -39.8982C417.466 -28.1882 419.367 -16.2682 418.057 -4.51475C416.694 7.72107 416.31 19.9863 415.108 32.2225C414.82 35.1817 414.573 38.2806 414.283 41.4089C415.751 46.8936 416.865 52.4758 417.457 58.2304C418.022 63.7213 418.345 69.3125 418.423 74.8433C418.469 78.0483 419.031 82.7171 417.421 85.7429C414.375 91.4671 411.166 86.9997 408.824 83.2489C404.147 75.7541 398.548 68.8076 394.062 61.1622C387.028 49.1685 382.353 36.6523 377.325 23.7262C371.844 9.63892 364.492 -3.68085 358.105 -17.3416C354.115 -25.8793 351.604 -35.1936 347.961 -43.9361C345.518 -49.7993 342.833 -55.6769 341.896 -62.0345C341.14 -67.163 339.354 -71.8735 338.387 -76.9578C337.438 -81.9478 338.845 -86.2564 338.963 -91.2511C339.083 -96.476 339.331 -102.11 338.617 -107.271C338.59 -107.467 338.567 -107.625 338.54 -107.815C335.038 -106.054 331.903 -103.773 328.285 -101.827C324.122 -99.5896 319.867 -97.4193 315.583 -95.3097C317.466 -94.0694 319.502 -92.6542 320.408 -90.917C322.131 -87.6108 321.534 -81.2125 322.109 -77.5837C324.753 -60.8968 328.913 -44.4617 331.767 -27.7972C334.189 -13.6622 336.803 0.389916 338.278 14.6917C339.596 27.4648 336.858 39.328 336.316 52.0655C335.907 61.7342 336.895 71.0425 335.898 80.7466C335.151 88.0463 334.442 95.3524 333.779 102.658C333.117 109.973 332.139 117.223 331.178 124.507C330.757 127.695 331.002 133.068 329.719 135.587C327.154 134.155 327.032 129.477 326.382 126.967C323.612 116.263 320.748 105.741 319.332 94.7264C317.904 83.6132 315.712 72.8698 312.013 62.3238C309.192 54.2816 305.782 46.7574 304.658 38.1958C303.014 25.6869 299.242 14.2222 296.19 2.18485C295.071 -2.23061 294.412 -6.7063 293.098 -11.063C291.812 -15.3262 292.44 -17.735 292.74 -22.0082C293.034 -26.2401 292.752 -30.159 293.752 -34.393C294.738 -38.5673 294.395 -42.6536 295.577 -46.7633C296.955 -51.5561 299.359 -55.907 300.522 -60.7725C301.629 -65.4057 302.865 -69.3744 304.676 -73.7762C307.18 -79.856 307.943 -85.9687 309.089 -92.1697C306.259 -90.8253 303.429 -89.5005 300.608 -88.2159C297.179 -86.6551 294.803 -84.5839 291.762 -82.62C284.415 -77.8745 277.368 -74.0325 270.643 -68.2595C266.182 -64.4314 261.731 -60.5922 257.265 -56.7697C263.99 -48.6759 270.895 -40.7023 277.457 -32.477C282.957 -25.5786 285.45 -17.9294 289.209 -10.0565C293.006 -2.1095 297.116 5.92882 299.362 14.5722C302.17 25.3878 303.098 36.6061 304.305 47.6945C305.92 62.5104 309.61 76.9293 308.32 91.9711C306.891 108.626 302.955 123.511 298.071 139.471C296.72 143.882 295.839 156.193 290.218 157.515C289.059 156.293 289.86 155.143 289.472 153.64C288.65 150.43 287.37 147.314 286.285 144.153C283.69 136.586 281.772 128.869 280.147 121.01C276.229 102.057 272.518 83.0875 268.27 64.2117C262.68 39.3673 251.61 15.3406 250.316 -10.3392C249.818 -20.1994 248.412 -30.2259 248.393 -40.077C248.387 -43.3859 248.412 -46.1776 249.051 -48.6702C248.397 -47.4563 247.98 -46.0578 247.831 -44.2208C247.043 -34.5762 247.264 -25.4921 247.748 -15.9968C247.998 -11.0929 245.635 -6.98783 246.205 -1.91603C246.571 1.34553 248.123 4.61724 248.309 7.7414C248.554 11.8581 247.872 15.7622 248.426 19.9713C248.923 23.7391 250.191 28.0652 250.309 31.6834C250.548 39.077 251.34 46.0316 249.924 53.3419C248.879 58.732 248.694 65.7282 248.671 71.129C248.65 75.9414 247.118 80.7907 246.973 85.6811C246.845 89.978 247.101 92.7916 245.942 97.0339C244.807 101.188 244.668 105.29 243.764 109.474C242.987 113.059 241.524 116.564 240.321 120.026C238.644 124.868 238.46 129.593 236.969 134.367C232.129 149.862 224.571 165.532 216.57 179.67C214.626 183.104 212.451 190.105 208.97 192.269C207.734 193.036 206.233 192.295 204.83 193.256C204.302 190.097 205.403 186.175 205.428 182.97C205.479 176.199 205.299 169.374 204.93 162.627C203.887 143.613 204.295 124.256 205.126 105.193C205.72 91.5121 208.906 78.1671 210.811 64.6176C212.906 49.7276 211.934 35.1155 212.607 20.1881C213.104 9.15144 215.535 -1.42426 216.648 -12.3691C216.792 -13.7761 216.668 -15.8061 216.896 -17.7089C213.947 -12.9287 210.259 -8.82823 208.529 -3.05679C206.708 3.02585 204.61 7.53447 201.678 13.0945C198.261 19.5723 198.024 26.7801 197.346 33.8882C196.019 47.8212 194.081 60.965 190.888 74.622C188.884 83.1904 187.481 91.585 183.523 99.5533C179.848 106.952 176.99 112.717 174.823 120.652C170.901 135.033 161.664 145.567 155.122 158.765C147.343 174.462 140.732 189.356 129.574 203.057C123.231 210.846 117.205 219.218 110.669 226.802C109.385 228.291 103.959 234.682 101.683 234.22C99.594 227.019 102.648 218.825 104.882 212.007C108.283 201.637 110.963 191.303 113.739 180.783C116.044 172.041 117.719 163.643 119.06 154.742C120.659 144.151 124.964 134.04 127.625 123.685C131.321 109.312 138.154 98.6012 146.087 86.002C153.497 74.2281 158.474 60.892 164.939 48.5764C171.572 35.9415 176.469 22.6855 182.404 9.71892C184.187 5.82409 185.681 1.63543 188.489 -1.52161C185.686 1.26113 183.306 4.49691 180.69 7.47612C173.887 15.2166 168.755 24.2251 161.704 31.7753C157.439 36.3404 152.67 40.5848 149.193 45.8244C146.979 49.1666 145.433 52.8945 142.993 56.1005C138.326 62.226 133.88 65.9955 131.021 73.4348C127.458 82.7146 121.751 91.3463 117.415 100.377C113.09 109.384 107.118 116.781 101.47 124.872C97.5787 130.45 94.23 135.675 89.4944 140.65C86.5272 143.765 85.1427 147.642 82.9285 151.289C78.2647 158.965 69.078 162.751 62.308 167.841C59.4359 170 57.0782 172.854 54.2226 175.027C50.9373 177.531 46.9485 178.581 43.2479 180.262C36.3516 183.396 31.7539 188.948 25.6964 193.297C22.5209 195.578 19.0317 197.271 15.9692 199.745C13.7889 201.507 11.8641 203.814 9.57467 205.441C7.89917 206.633 1.4954 211.079 -0.000176012 210.102C2.59872 206.072 6.52229 202.583 9.42996 198.746Z" fill="#94B38B"/>
</g>
</svg>
