<svg width="210" height="291" viewBox="0 0 210 291" fill="none" xmlns="http://www.w3.org/2000/svg">
<path fill-rule="evenodd" clip-rule="evenodd" d="M209.203 75.763C208.33 69.984 206.392 64.5563 204.596 59.0521C204.218 57.8954 203.99 56.6382 203.597 55.4791C203.067 53.9089 202.27 52.1355 201.374 50.7254C200.474 49.3033 200.013 47.6279 199.088 46.2346C198.259 44.9846 197.27 43.7681 196.338 42.5826C194.819 40.6491 193.489 39.5019 191.367 38.2018C188.782 36.6172 186.61 35.2621 183.684 34.2822C180.828 33.3238 177.987 32.2268 175.173 31.1584C173.139 30.3865 170.911 29.6408 169.17 28.343C168.139 27.5711 168.703 27.1074 169.292 26.0247C170.88 23.0946 171.194 19.6578 172.408 16.5675C173.267 14.3878 173.961 12.0934 174.699 9.86594C176 5.94634 178.379 2.53581 179.748 -1.34794C180.445 -3.32447 180.835 -5.36553 181.686 -7.29187C182.66 -9.49784 183.522 -11.7349 184.424 -13.9647C184.837 -14.9853 185.146 -16.0584 185.629 -17.0431C185.835 -17.4637 186.21 -17.815 186.206 -18.305C185.077 -18.642 182.636 -18.6252 181.377 -18.3982C179.559 -18.0708 179.432 -15.872 179.096 -14.3161C177.781 -8.24787 177.059 -2.44973 174.066 3.14287C172.356 6.33591 170.362 9.37599 168.667 12.5762C166.167 17.2964 163.907 22.0621 160.553 26.3283C157.268 30.5084 153.324 34.4853 149.332 38.044C147.634 39.5569 145.804 41.3136 143.586 41.8824C139.42 42.9507 135.228 44.8197 130.858 45.6753C125.957 46.6361 121.295 48.8922 116.273 49.0811C113.43 49.1862 110.503 48.9998 107.65 48.995C100.915 48.9831 94.181 49.0667 87.449 49.0022C83.9997 48.9711 80.5846 48.6389 77.1843 49.4133C70.705 50.8903 63.9437 53.9471 57.7711 56.3706C46.1325 60.9426 34.9796 66.8173 23.5397 71.8458C27.2173 71.0499 31.2726 72.6202 34.9551 72.895C45.6271 73.6885 56.1445 74.1259 66.841 74.0852C78.595 74.0422 90.5452 73.9944 101.99 71.0069C112.395 68.2919 120 61.0717 128.834 55.3022C134.099 51.8606 139.322 49.4372 144.889 46.6433C147.916 45.1208 150.296 42.4249 152.99 40.7017C151.623 42.6281 150.738 44.5018 149.582 46.476C147.296 50.386 144.138 53.8802 140.983 57.1473C139.737 58.4379 138.471 59.7237 137.271 61.0597C135.736 62.7686 134.781 64.8766 133.317 66.638C131.531 68.7842 129.919 70.995 127.981 73.0265C126.884 74.1737 125.795 75.4117 124.843 76.6664C124.32 77.3595 124.08 78.2008 123.547 78.8939C122.924 79.7089 122.306 80.1821 121.808 81.0855C121.013 82.5339 119.973 83.6859 119.095 85.0649C118.243 86.3985 117.431 87.9831 116.32 89.1375C115.419 90.0672 114.2 90.5308 113.131 91.2407C111.023 92.646 108.864 93.9844 106.624 95.1818C102.623 97.3208 100.793 101.826 97.0269 104.261C92.2625 107.342 86.2052 108.781 81.1293 111.319C74.5298 114.622 68.2861 118.625 61.6964 121.978C55.1804 125.296 47.84 126.436 41.5545 130.226C37.931 132.413 34.484 134.968 31.042 137.42C26.9449 140.338 22.3253 142.776 18.4343 145.943C13.8417 149.681 10.9737 155.419 7.33544 159.977C5.09555 162.783 2.38707 165.441 0.409683 168.428C4.32275 166.927 9.24659 165.794 13.4688 165.171C17.9412 164.513 21.6531 164.188 25.998 162.843C30.777 161.363 35.8849 160.759 40.5708 158.992C47.4229 156.411 53.7255 152.788 60.0968 149.346C65.7297 146.306 72.0078 145.212 77.123 141.01C80.0056 138.639 82.1155 135.647 84.6154 132.963C87.9397 129.395 92.2993 126.419 95.4935 122.796C98.0057 119.947 99.7084 115.351 101.821 112.148C104.176 108.582 106.293 104.964 108.899 101.556C110.017 100.093 111.465 97.7367 113.216 96.1378C111.011 101.465 109.22 106.953 107.922 112.438C102.145 121.343 96.6957 130.676 92.0711 140.123C87.3632 149.741 80.803 158.467 75.2241 167.632C71.0264 174.53 65.7101 180.048 60.2416 185.834C56.407 189.893 53.728 194.644 50.6957 199.305C46.3557 205.973 41.1694 212.055 36.7975 218.702C29.7025 229.488 26.4126 242.15 22.7964 254.344C20.4583 262.228 18.1399 270.113 16.2288 278.108C15.4903 281.205 15.088 286.917 13.3461 290.581C14.5163 289.106 16.1012 287.89 17.5241 286.733C23.9175 281.523 30.6372 276.827 36.5497 271.057C46.3999 261.442 56.4291 251.543 62.3637 239.115C67.0496 229.309 69.0809 218.699 70.8768 208.104C71.9612 201.709 72.8787 195.184 74.8291 188.963C76.1956 184.606 78.5116 180.741 80.4423 176.628C82.9472 171.291 86.9314 166.789 89.3013 161.418C91.107 157.327 92.2159 152.599 92.9887 148.237C93.6339 144.593 93.683 142.131 95.7511 138.885C97.0514 136.842 97.6181 134.686 98.7687 132.583C100.906 128.682 104.389 125.965 106.534 122.246C107.078 123.675 106.597 125.035 106.72 126.527C106.924 129.053 107.775 131.488 108.013 134.038C109.085 145.551 111.985 156.753 113.427 168.206C115.076 181.296 118.069 194.082 122.426 206.613C124.141 211.548 126.177 216.364 128.059 221.238C129.195 223.563 129.902 225.998 130.176 228.549C129.975 229.701 130.233 230.704 130.947 231.56C133.437 229.497 134.222 225.2 135 222.401C136.619 216.582 138.486 210.779 139.658 204.852C141.133 197.388 142.328 190.038 142.347 182.448C142.36 176.989 141.214 173.493 138.976 168.531C136.913 163.952 133.883 160.13 131.592 155.642C128.572 149.719 128.67 143.338 126.472 137.186C125.446 134.837 124.583 132.432 123.883 129.971C123.322 127.392 122.865 124.799 122.519 122.186C121.29 119.758 118.206 118.604 116.538 116.247C114.752 113.723 112.591 110.779 112.831 107.674C113.02 105.28 114.193 102.784 114.985 100.385C117.277 95.0001 119.755 89.7039 122.944 84.6705C125.768 80.2132 129.04 76.0116 132.762 72.2425C135.007 76.9174 139.256 81.2983 142.46 85.4879C147.416 91.9696 150.703 99.228 154.587 106.324C157.803 112.199 161.429 118.119 163.51 124.366C164.3 126.739 166.059 128.281 167.46 130.3C169.508 133.257 171.456 136.359 173.085 139.552C174.734 142.781 176.839 146.182 177.719 149.71C178.397 152.417 177.894 154.695 179 157.42C180.742 161.71 183.948 164.841 185.072 169.449C185.737 172.171 185.838 175.512 187.41 177.936C191.056 173.703 190.975 164.812 191.48 159.501C192.317 150.728 193.063 141.949 192.655 133.133C192.307 125.578 189.226 116.864 185.465 110.148C181.579 103.215 174.133 97.8371 169.309 91.4892C165.215 86.095 159.646 82.0105 155.426 76.7166C152.838 73.471 152.094 71.2316 152.148 67.1447C152.239 60.3834 151.697 54.0881 153.787 47.5156C155.281 42.8097 158.365 38.718 160.026 34.0814C160.504 32.7526 160.62 30.9147 161.846 30.0686C164.216 31.5241 167.877 36.6722 169.184 38.1659C177.148 47.2766 184.186 57.6612 191.012 67.5605C199.871 80.4044 206.787 93.3749 208.651 108.908C207.974 105.167 209.448 97.9518 209.625 95.1674C210.045 88.6236 210.184 82.2734 209.203 75.763Z" fill="#c0d2ba"/>
</svg>
